<svg xmlns="http://www.w3.org/2000/svg" xmlns:xlink="http://www.w3.org/1999/xlink" width="500" zoomAndPan="magnify" viewBox="0 0 375 374.999991" height="500" preserveAspectRatio="xMidYMid meet" version="1.0"><defs><g/></defs><g fill="#ffffff" fill-opacity="1"><g transform="translate(68.466792, 196.50464)"><g><path d="M 4.417969 -11.898438 C 4.417969 -7.910156 4.273438 -6.625 3.5625 -5.488281 C 2.28125 -3.421875 2.28125 -3.421875 2.28125 -2.207031 C 2.28125 -0.640625 3.421875 0.425781 5.058594 0.425781 C 5.628906 0.425781 6.554688 0.355469 7.410156 0.285156 C 9.40625 0.0703125 10.472656 0 11.828125 0 C 13.394531 0 16.246094 0.140625 17.957031 0.355469 C 19.023438 0.425781 20.09375 0.5 20.59375 0.5 C 22.375 0.5 23.515625 -0.570312 23.515625 -2.066406 C 23.515625 -2.921875 23.371094 -3.632812 23.085938 -4.0625 C 21.375 -6.910156 21.375 -6.910156 21.375 -11.898438 L 21.375 -17.316406 C 21.375 -17.671875 21.375 -18.242188 21.449219 -18.953125 L 21.449219 -20.449219 C 21.449219 -20.949219 21.449219 -21.375 21.375 -21.804688 C 21.304688 -22.300781 21.234375 -22.730469 21.234375 -22.871094 C 21.234375 -23.441406 21.519531 -23.726562 22.089844 -23.726562 C 22.800781 -23.726562 23.230469 -23.300781 24.15625 -21.804688 L 35.269531 -2.992188 C 36.695312 -0.5 37.835938 0.425781 39.332031 0.425781 C 39.761719 0.425781 40.613281 0.355469 41.542969 0.285156 C 42.398438 0.214844 47.667969 0 49.023438 0 C 50.378906 0 53.371094 0.140625 55.292969 0.285156 C 56.574219 0.355469 57.714844 0.425781 58.429688 0.425781 C 60.28125 0.425781 61.421875 -0.570312 61.421875 -2.207031 C 61.421875 -2.992188 61.277344 -3.632812 60.992188 -4.132812 L 60.140625 -5.488281 C 59.855469 -6.058594 59.640625 -6.554688 59.496094 -7.195312 C 59.355469 -7.910156 59.355469 -8.050781 59.285156 -11.898438 L 59.285156 -43.535156 C 59.285156 -47.527344 59.425781 -48.808594 60.140625 -50.019531 C 61.421875 -52.085938 61.421875 -52.085938 61.421875 -53.296875 C 61.421875 -54.867188 60.28125 -56.007812 58.640625 -56.007812 C 58.214844 -56.007812 57.289062 -55.933594 56.292969 -55.863281 C 55.078125 -55.722656 51.589844 -55.507812 50.589844 -55.507812 C 49.378906 -55.507812 45.460938 -55.722656 44.460938 -55.792969 C 42.964844 -56.007812 42.894531 -56.007812 42.609375 -56.007812 C 41.113281 -56.007812 39.972656 -54.867188 39.972656 -53.296875 C 39.972656 -52.515625 40.117188 -51.800781 40.402344 -51.375 C 41.898438 -48.953125 41.96875 -48.738281 42.039062 -46.742188 L 42.113281 -43.535156 L 42.113281 -38.90625 C 42.039062 -36.554688 42.039062 -36.554688 42.039062 -35.984375 C 42.039062 -35.058594 42.039062 -34.273438 42.113281 -33.917969 C 42.183594 -33.277344 42.253906 -32.707031 42.253906 -32.492188 C 42.253906 -32.066406 41.96875 -31.707031 41.46875 -31.707031 C 40.828125 -31.707031 40.257812 -32.207031 39.476562 -33.488281 L 28.003906 -52.726562 C 26.507812 -55.152344 25.582031 -56.007812 24.296875 -56.007812 C 23.941406 -56.007812 23.230469 -55.933594 22.375 -55.792969 C 21.304688 -55.648438 18.382812 -55.507812 16.316406 -55.507812 C 14.820312 -55.507812 10.757812 -55.648438 8.265625 -55.792969 C 5.984375 -55.933594 5.34375 -56.007812 4.917969 -56.007812 C 3.207031 -56.007812 2.28125 -55.078125 2.28125 -53.371094 C 2.28125 -52.515625 2.421875 -51.800781 2.707031 -51.375 C 4.347656 -48.59375 4.417969 -48.453125 4.417969 -43.535156 Z M 4.417969 -11.898438 "/></g></g></g><g fill="#ffffff" fill-opacity="1"><g transform="translate(132.23886, 196.50464)"><g><path d="M 4.417969 -11.898438 C 4.417969 -7.839844 4.273438 -6.699219 3.492188 -5.488281 C 2.351562 -3.632812 2.28125 -3.492188 2.28125 -2.492188 C 2.28125 -0.710938 3.421875 0.425781 5.203125 0.425781 C 5.84375 0.425781 6.839844 0.355469 7.980469 0.285156 C 10.1875 0.0703125 12.613281 0 15.890625 0 C 19.382812 0 21.875 0.0703125 23.871094 0.355469 C 24.867188 0.425781 25.792969 0.5 26.292969 0.5 C 27.933594 0.5 29.070312 -0.640625 29.070312 -2.421875 C 29.070312 -3.421875 29 -3.632812 27.859375 -5.488281 C 27.078125 -6.769531 26.933594 -7.695312 26.933594 -11.898438 L 26.933594 -43.535156 C 26.933594 -47.742188 27.078125 -48.738281 27.859375 -49.949219 C 29 -51.800781 29.070312 -52.015625 29.070312 -53.011719 C 29.070312 -54.867188 27.933594 -56.007812 26.222656 -56.007812 C 25.507812 -56.007812 24.441406 -55.933594 23.371094 -55.863281 C 20.804688 -55.578125 19.238281 -55.507812 15.460938 -55.507812 C 12.328125 -55.507812 11.472656 -55.578125 8.550781 -55.863281 C 7.339844 -55.933594 6.199219 -56.007812 5.414062 -56.007812 C 3.421875 -56.007812 2.28125 -54.9375 2.28125 -53.011719 C 2.28125 -51.945312 2.28125 -51.875 3.492188 -49.949219 C 4.273438 -48.738281 4.417969 -47.597656 4.417969 -43.535156 Z M 4.417969 -11.898438 "/></g></g></g><g fill="#ffffff" fill-opacity="1"><g transform="translate(163.661744, 196.50464)"><g><path d="M 3.0625 -56.007812 C 1.070312 -56.007812 -0.140625 -54.9375 -0.140625 -53.15625 C -0.140625 -52.160156 0.0703125 -51.660156 1.070312 -50.304688 C 2.136719 -48.878906 2.207031 -48.667969 3.0625 -45.246094 C 4.132812 -40.472656 7.910156 -33.417969 10.902344 -30.496094 C 12.042969 -29.355469 12.328125 -29 12.328125 -28.429688 C 12.328125 -28.074219 12.183594 -27.789062 11.757812 -27.363281 C 7.054688 -22.375 4.558594 -17.886719 3.0625 -11.257812 C 2.207031 -7.480469 1.925781 -6.769531 0.925781 -5.558594 C -0.785156 -3.5625 -0.785156 -3.5625 -0.785156 -2.421875 C -0.785156 -0.710938 0.355469 0.425781 1.996094 0.425781 C 2.492188 0.425781 3.347656 0.355469 4.273438 0.285156 C 5.628906 0.140625 9.476562 0 11.613281 0 C 13.679688 0 16.246094 0.140625 17.671875 0.285156 C 18.527344 0.355469 19.238281 0.425781 19.667969 0.425781 C 21.164062 0.425781 22.089844 -0.570312 22.089844 -2.207031 C 22.089844 -2.992188 22.089844 -2.992188 21.375 -4.84375 C 21.089844 -5.628906 20.949219 -6.269531 20.949219 -6.839844 C 20.949219 -8.121094 21.945312 -12.253906 22.800781 -14.464844 C 23.515625 -16.316406 24.15625 -17.101562 25.082031 -17.101562 C 25.9375 -17.101562 26.578125 -16.460938 27.363281 -15.035156 C 28.859375 -12.113281 30.140625 -8.121094 30.140625 -6.484375 C 30.140625 -5.914062 30 -5.273438 29.785156 -4.558594 C 29.214844 -2.992188 29.214844 -2.992188 29.214844 -2.351562 C 29.214844 -0.640625 30.355469 0.5 31.992188 0.5 C 32.492188 0.5 33.417969 0.425781 34.488281 0.355469 C 36.269531 0.140625 39.972656 0 43.535156 0 C 47.242188 0 51.800781 0.140625 53.726562 0.355469 C 54.9375 0.425781 56.007812 0.5 56.433594 0.5 C 58.285156 0.5 59.285156 -0.570312 59.285156 -2.492188 C 59.285156 -3.421875 59.070312 -4.132812 58.429688 -4.84375 C 58.074219 -5.34375 57.644531 -5.84375 57.21875 -6.269531 C 56.789062 -6.839844 56.433594 -7.480469 56.292969 -8.265625 C 54.226562 -16.601562 51.730469 -22.019531 47.742188 -26.648438 C 46.601562 -27.789062 46.316406 -28.289062 46.316406 -28.859375 C 46.316406 -29.429688 46.527344 -29.855469 47.382812 -30.710938 C 51.160156 -34.914062 53.15625 -39.191406 55.007812 -46.742188 C 55.507812 -49.164062 55.648438 -49.449219 56.363281 -50.589844 C 57.574219 -52.371094 57.574219 -52.371094 57.574219 -53.296875 C 57.574219 -54.867188 56.433594 -56.007812 54.867188 -56.007812 C 54.4375 -56.007812 53.726562 -55.933594 52.941406 -55.792969 C 51.515625 -55.648438 49.59375 -55.507812 47.597656 -55.507812 C 45.246094 -55.507812 41.183594 -55.648438 39.972656 -55.792969 C 39.046875 -55.933594 38.265625 -56.007812 37.835938 -56.007812 C 36.554688 -56.007812 35.554688 -54.722656 35.554688 -53.011719 C 35.554688 -52.445312 35.628906 -51.945312 35.769531 -51.589844 C 36.765625 -49.734375 36.765625 -49.734375 36.765625 -48.878906 C 36.765625 -47.457031 35.769531 -43.75 34.773438 -41.328125 C 34.203125 -39.832031 33.632812 -39.261719 32.847656 -39.261719 C 32.136719 -39.261719 31.566406 -39.6875 30.710938 -40.972656 C 29.429688 -42.964844 27.859375 -47.457031 27.859375 -49.308594 C 27.859375 -49.808594 28.003906 -50.234375 28.5 -51.445312 C 28.859375 -52.230469 29 -52.726562 29 -53.296875 C 29 -54.9375 27.859375 -56.007812 26.152344 -56.007812 C 25.652344 -56.007812 24.441406 -55.933594 23.230469 -55.792969 C 21.449219 -55.648438 17.171875 -55.507812 14.535156 -55.507812 C 11.402344 -55.507812 6.769531 -55.648438 5.273438 -55.863281 C 4.203125 -55.933594 3.421875 -56.007812 3.0625 -56.007812 Z M 3.0625 -56.007812 "/></g></g></g><g fill="#ffffff" fill-opacity="1"><g transform="translate(222.232296, 196.50464)"><g><path d="M 4.417969 -11.898438 C 4.417969 -7.839844 4.273438 -6.699219 3.492188 -5.488281 C 2.351562 -3.632812 2.28125 -3.492188 2.28125 -2.492188 C 2.28125 -0.710938 3.421875 0.425781 5.203125 0.425781 C 5.84375 0.425781 6.839844 0.355469 7.980469 0.285156 C 10.1875 0.0703125 12.613281 0 15.890625 0 C 19.382812 0 21.875 0.0703125 23.871094 0.355469 C 24.867188 0.425781 25.792969 0.5 26.292969 0.5 C 27.933594 0.5 29.070312 -0.640625 29.070312 -2.421875 C 29.070312 -3.421875 29 -3.632812 27.859375 -5.488281 C 27.078125 -6.769531 26.933594 -7.695312 26.933594 -11.898438 L 26.933594 -43.535156 C 26.933594 -47.742188 27.078125 -48.738281 27.859375 -49.949219 C 29 -51.800781 29.070312 -52.015625 29.070312 -53.011719 C 29.070312 -54.867188 27.933594 -56.007812 26.222656 -56.007812 C 25.507812 -56.007812 24.441406 -55.933594 23.371094 -55.863281 C 20.804688 -55.578125 19.238281 -55.507812 15.460938 -55.507812 C 12.328125 -55.507812 11.472656 -55.578125 8.550781 -55.863281 C 7.339844 -55.933594 6.199219 -56.007812 5.414062 -56.007812 C 3.421875 -56.007812 2.28125 -54.9375 2.28125 -53.011719 C 2.28125 -51.945312 2.28125 -51.875 3.492188 -49.949219 C 4.273438 -48.738281 4.417969 -47.597656 4.417969 -43.535156 Z M 4.417969 -11.898438 "/></g></g></g><g fill="#ffffff" fill-opacity="1"><g transform="translate(253.655176, 196.50464)"><g><path d="M 4.417969 -11.898438 C 4.417969 -7.839844 4.273438 -6.699219 3.492188 -5.488281 C 2.28125 -3.5625 2.28125 -3.492188 2.28125 -2.421875 C 2.28125 -0.710938 3.421875 0.425781 5.128906 0.425781 C 5.773438 0.425781 6.839844 0.355469 7.980469 0.285156 C 9.976562 0.140625 12.753906 0 14.890625 0 C 23.085938 0 37.980469 0.214844 41.898438 0.355469 C 43.324219 0.425781 44.675781 0.425781 45.460938 0.425781 C 48.027344 0.425781 48.453125 -0.0703125 49.164062 -4.132812 C 49.664062 -7.269531 50.875 -12.113281 51.375 -13.324219 C 51.800781 -14.394531 52.015625 -15.320312 52.015625 -15.890625 C 52.015625 -17.101562 50.945312 -18.097656 49.664062 -18.097656 C 48.878906 -18.097656 48.808594 -18.097656 46.742188 -17.242188 C 43.75 -16.105469 39.402344 -15.390625 35.199219 -15.390625 C 26.007812 -15.390625 25.4375 -15.535156 25.4375 -17.742188 L 25.4375 -20.234375 C 25.4375 -22.375 26.007812 -22.800781 28.929688 -22.800781 L 34.984375 -22.800781 C 37.410156 -22.800781 39.191406 -22.585938 40.1875 -22.230469 C 42.824219 -21.234375 42.824219 -21.234375 43.679688 -21.234375 C 45.175781 -21.234375 46.246094 -22.375 46.246094 -23.871094 C 46.246094 -24.226562 46.171875 -25.082031 46.101562 -26.292969 C 46.03125 -26.648438 46.03125 -27.289062 46.03125 -27.933594 C 46.03125 -29.570312 46.101562 -30.925781 46.171875 -32.136719 C 46.246094 -32.917969 46.246094 -33.5625 46.246094 -33.988281 C 46.246094 -35.699219 45.390625 -36.695312 43.820312 -36.695312 C 43.179688 -36.695312 42.609375 -36.625 42.253906 -36.480469 C 38.832031 -35.199219 38.546875 -35.128906 34.984375 -35.128906 L 29.570312 -35.128906 C 27.289062 -35.128906 26.863281 -35.199219 26.363281 -35.414062 C 25.792969 -35.628906 25.4375 -36.410156 25.4375 -37.195312 L 25.4375 -39.546875 C 25.4375 -41.398438 26.007812 -41.96875 28.003906 -41.96875 C 36.269531 -41.96875 41.542969 -41.613281 44.035156 -40.972656 C 47.242188 -40.046875 47.242188 -40.046875 48.167969 -40.046875 C 49.59375 -40.046875 50.660156 -40.898438 50.660156 -42.039062 C 50.660156 -42.398438 50.589844 -42.894531 50.378906 -43.394531 C 49.238281 -47.097656 49.023438 -47.8125 48.167969 -52.65625 C 47.667969 -55.152344 46.8125 -56.007812 44.820312 -56.007812 C 44.179688 -56.007812 43.25 -55.933594 42.183594 -55.863281 C 39.402344 -55.648438 30.925781 -55.507812 21.945312 -55.507812 C 16.175781 -55.507812 10.757812 -55.648438 8.550781 -55.863281 C 7.339844 -55.933594 6.058594 -56.007812 5.273438 -56.007812 C 3.421875 -56.007812 2.28125 -54.867188 2.28125 -53.085938 C 2.28125 -52.015625 2.351562 -51.875 3.492188 -49.949219 C 4.273438 -48.738281 4.417969 -47.597656 4.417969 -43.535156 Z M 4.417969 -11.898438 "/></g></g></g><path stroke-linecap="butt" transform="matrix(0.280234, -0.0170234, 0.0170234, 0.280234, 76.712123, 172.715818)" fill="none" stroke-linejoin="miter" d="M 230.646702 106.494334 L 228.656958 106.206193 L 228.280295 106.21119 C 226.705892 106.199185 225.085282 105.571048 223.419308 104.312889 C 221.753334 103.054731 220.912786 100.829152 220.913237 97.609219 C 220.912845 94.403173 222.667465 90.76011 226.150163 86.664453 C 229.646749 82.569639 234.391111 78.81547 240.370206 75.387212 C 246.335412 71.958111 253.783193 69.134823 262.684928 66.929548 C 271.599707 64.739005 280.992 63.636851 290.860963 63.636973 C 311.072767 63.638125 326.847821 67.607282 338.212214 75.573908 C 349.562718 83.53969 355.249916 93.865653 355.244345 106.577887 C 355.250387 114.509672 353.485907 122.445417 349.965637 130.372078 C 346.431478 138.297896 341.721124 145.622573 335.808487 152.316646 C 329.881118 159.023763 322.935774 165.278743 314.94299 171.107675 C 306.95105 176.922719 298.579202 181.878331 289.827445 185.974511 C 270.956097 194.655289 252.89213 198.994256 235.648588 199.006146 C 227.145709 199.005374 221.793841 198.303906 219.591298 196.929518 C 218.782486 196.476147 217.973284 195.799726 217.192312 194.888052 C 216.397451 193.975535 215.793194 193.36732 215.352608 193.047832 C 214.157917 192.292237 213.558851 190.680713 213.557097 188.185485 C 213.554499 185.704146 213.802274 183.461043 214.315154 181.443133 C 216.201512 174.713565 224.672775 160.090171 239.755875 137.588526 C 254.824244 115.099926 267.426657 96.949957 277.561427 83.166395 C 278.245441 82.232201 281.800048 81.542082 288.225247 81.09604 C 290.874086 81.089678 292.688349 81.283524 293.696655 81.665377 C 294.705805 82.033343 295.207784 82.71898 295.204281 83.694513 C 295.214665 84.670889 293.569591 87.428497 290.295148 91.996799 C 287.034593 96.565945 276.517386 112.514734 258.77046 139.858741 C 241.023533 167.202747 232.154645 181.258357 232.150752 182.010839 C 232.146859 182.76332 234.939575 183.142057 240.501124 183.145363 C 246.077405 183.135624 252.937025 181.963252 261.081671 179.600473 C 269.240204 177.238538 276.900133 174.135413 284.074502 170.305831 C 291.249714 166.462361 298.099272 162.013661 304.651795 156.947531 C 311.190431 151.880557 316.801947 146.701507 321.457724 141.42258 C 331.654473 129.831241 336.739799 119.546349 336.743166 110.541815 C 336.74569 101.551169 332.638413 93.899937 324.420492 87.602007 C 316.215615 81.318809 304.962914 78.168 290.675434 78.164312 C 281.04341 78.164645 271.954901 79.773126 263.396018 82.988912 C 254.837979 86.190811 248.949026 89.053036 245.743047 91.576432 C 242.537913 94.085939 240.929181 95.786374 240.931583 96.664691 C 240.928143 97.180233 241.303508 97.426063 242.05599 97.429956 L 246.116469 96.672993 C 246.688407 96.665919 246.973305 96.794739 246.972008 97.045567 C 246.97071 97.296394 246.442059 97.738214 245.372166 98.370182 C 244.302273 99.002151 243.425125 99.673706 242.767654 100.400424 C 242.110182 101.127142 240.464912 102.281727 237.816269 103.891112 C 235.167626 105.500497 232.773704 106.358697 230.646702 106.494334 Z M 404.239745 95.350135 C 404.245134 98.932843 402.576374 102.539304 399.234307 106.155631 C 395.906128 109.772802 392.422909 111.582395 388.798538 111.585253 C 385.188054 111.588955 383.379501 109.694871 383.372034 105.916888 C 383.378456 102.139748 384.963045 98.542113 388.140533 95.110937 C 391.318021 91.679761 394.836998 89.969915 398.670533 89.965824 C 400.370772 89.971533 401.722059 90.443918 402.724395 91.382978 C 403.740619 92.322882 404.245454 93.649896 404.239745 95.350135 Z M 388.946231 177.763719 C 388.943442 179.645345 388.763549 181.000461 388.379618 181.813492 C 385.293053 188.107732 380.384373 193.190085 373.653576 197.060552 C 366.922779 200.931018 361.061731 202.87495 356.099896 202.866258 C 351.123328 202.87061 346.847713 201.203018 343.259162 197.862639 C 339.669767 194.536148 337.882888 191.137944 337.87075 187.666339 C 337.871656 184.209467 339.613424 179.171701 343.067436 172.565241 C 346.535335 165.959624 349.986752 159.854819 353.44946 154.252511 C 356.912169 148.650204 358.643556 145.619055 358.644464 145.145176 C 358.645372 144.671298 358.004967 143.740285 356.708517 142.365182 C 355.412911 140.976191 354.778411 139.947962 354.776399 139.292697 C 354.774386 138.637431 356.078427 136.904548 358.68852 134.094048 C 361.297769 131.297437 364.476426 128.535415 368.225333 125.794095 C 371.97424 123.052774 374.830749 121.692984 376.810434 121.68779 C 378.804007 121.683441 380.576087 122.571685 382.156138 124.326436 C 383.721456 126.094231 384.515798 127.703678 384.51223 129.139201 C 384.507818 130.588612 377.017279 144.212201 362.039769 170.023856 C 361.849491 170.402596 361.338881 171.23581 360.480164 172.521811 C 359.635335 173.808655 358.97066 174.883416 358.500871 175.733049 C 358.031082 176.582682 357.480885 177.60864 356.851125 178.797036 C 355.597056 181.313551 354.967166 183.421927 354.961457 185.122166 C 354.956526 187.268507 356.41126 188.332623 359.310926 188.327559 C 362.195861 188.335539 365.210978 187.347803 368.314614 185.36182 C 371.432138 183.376681 374.130102 181.184845 376.393775 178.799357 C 382.313941 172.440282 385.670674 169.270901 386.49344 169.265125 C 388.124238 169.266616 388.942398 172.090222 388.946231 177.763719 Z M 411.371641 136.276819 C 417.4388 132.087254 423.40524 128.867316 429.257916 126.602274 C 435.111435 124.323344 440.170226 123.194909 444.44902 123.203927 C 448.728658 123.199056 451.469911 124.424959 452.67278 126.881637 C 455.117061 124.047126 458.178125 122.532491 461.827352 122.349932 C 462.890431 122.289058 464.216538 122.258101 465.791785 122.256218 C 467.367031 122.254334 468.330753 122.45227 468.709882 122.865599 C 469.089011 123.278928 469.432317 124.052501 469.754532 125.173273 C 470.062015 126.30709 470.260147 126.94639 470.322837 127.061713 C 470.384684 127.190923 470.413694 127.401773 470.410709 127.680376 C 470.407723 127.958979 470.260797 128.312474 469.942996 128.725284 C 469.626039 129.124207 469.267418 129.520599 468.854089 129.899728 C 468.44076 130.278857 468.20421 130.501454 468.145284 130.553631 C 454.234612 150.505923 440.014643 173.255149 425.484533 198.815197 C 440.453552 185.534389 453.857321 175.991783 465.694153 170.215155 C 466.442481 169.828498 467.178998 169.636272 467.862039 169.635947 C 468.865348 169.641138 469.537358 170.281347 469.848605 171.582663 C 470.160696 172.870091 470.314049 174.705445 470.321709 177.103456 C 470.316325 179.486736 470.170502 180.969375 469.898973 181.538328 C 469.613556 182.106437 468.151361 183.230326 465.510701 184.93777 C 462.856996 186.630482 459.433482 188.834 455.212384 191.546637 C 450.99213 194.245385 446.531107 197.23617 441.816272 200.50426 C 430.479539 208.374273 421.167464 216.646061 413.865318 225.33267 C 404.432862 236.733471 397.658393 245.912129 393.568001 252.898107 C 392.065182 255.6086 389.515896 256.959175 385.9193 256.96372 C 378.81028 256.963986 375.26508 253.598361 375.255924 246.86516 C 375.254361 240.006967 378.622579 232.977119 385.358889 225.803391 C 390.394703 220.463916 395.023418 216.089395 399.230304 212.692873 C 403.45192 209.283308 405.742461 207.373385 406.132232 206.923129 C 410.779831 199.94312 417.111246 190.026648 425.097016 177.1998 C 418.309371 184.300713 411.706683 189.963183 405.330614 194.189739 C 398.9415 198.401565 394.171697 200.50936 391.021203 200.513127 C 381.38918 200.513459 376.579849 196.388021 376.57848 188.149857 C 376.586132 181.598887 378.241846 174.994699 381.588129 168.325938 C 384.920523 161.656334 389.200156 155.685475 394.426183 150.42725 C 399.651367 145.182914 405.291438 140.451653 411.371641 136.276819 Z M 447.286588 133.858596 C 439.984176 135.436185 433.121832 138.030191 426.7126 141.655347 C 420.290323 145.265771 414.99505 149.139806 410.841511 153.264408 C 406.687972 157.389009 403.099621 161.617641 400.089504 165.965033 C 394.424969 174.082039 391.589231 180.377577 391.583135 184.837758 C 391.587613 185.91135 391.861934 186.443765 392.391364 186.448048 C 392.921638 186.438443 394.126192 185.884351 395.979782 184.74242 C 397.832527 183.614378 400.45891 181.683039 403.859774 178.934515 C 407.259795 176.19988 411.039917 172.944705 415.186253 169.168146 C 424.813207 160.30216 435.522578 148.532872 447.286588 133.858596 Z M 524.311985 95.353933 C 524.317375 98.936641 522.648614 102.543102 519.306548 106.159429 C 515.978369 109.7766 512.49515 111.586193 508.884666 111.589895 C 505.260294 111.592753 503.451741 109.698669 503.458163 105.921529 C 503.450697 102.143546 505.035286 98.545911 508.212773 95.114735 C 511.404149 91.684403 514.909239 89.973713 518.742774 89.969622 C 520.443012 89.975331 521.795143 90.433828 522.810523 91.38762 C 523.812859 92.32668 524.317695 93.653694 524.311985 95.353933 Z M 509.019315 177.753629 C 509.015683 179.649143 508.835789 181.004259 508.451859 181.81729 C 505.365294 188.11153 500.456613 193.193883 493.725816 197.06435 C 486.995019 200.934816 481.148703 202.865704 476.172136 202.870056 C 471.195569 202.874408 466.919954 201.206816 463.331402 197.866437 C 459.742851 194.526058 457.955972 191.127854 457.956878 187.670981 C 457.957784 184.214109 459.685665 179.175499 463.139676 172.569039 C 466.607576 165.963422 470.07288 159.859461 473.521701 154.256309 C 476.984409 148.654002 478.715796 145.622853 478.716704 145.148974 C 478.717612 144.675096 478.077207 143.744083 476.781601 142.355092 C 475.499039 140.980833 474.850652 139.95176 474.848639 139.296495 C 474.847471 138.627341 476.151511 136.894458 478.76076 134.097846 C 481.383898 131.302078 484.563398 128.526169 488.297573 125.797893 C 492.046481 123.056572 494.903833 121.682894 496.896562 121.692432 C 498.876247 121.687239 500.649171 122.561595 502.228378 124.330234 C 503.793697 126.098029 504.588882 127.693588 504.58447 129.142999 C 504.580058 130.59241 497.089519 144.215999 482.112853 170.013766 C 481.922575 170.392506 481.411965 171.22572 480.566293 172.526452 C 479.707576 173.812453 479.042901 174.887214 478.573111 175.736847 C 478.103322 176.58648 477.553969 177.59855 476.923365 178.800834 C 475.669296 181.317349 475.039407 183.425725 475.033697 185.125964 C 475.043499 187.25926 476.483501 188.336421 479.383167 188.331357 C 482.268101 188.339337 485.284062 187.337713 488.400742 185.366462 C 491.504378 183.380479 494.202343 181.188643 496.466016 178.803155 C 502.386181 172.44408 505.743759 169.260811 506.56568 169.268923 C 508.196479 169.270414 509.028526 172.094864 509.019315 177.753629 Z M 566.982511 77.413557 L 570.855893 78.359753 C 571.413943 78.351836 571.925657 78.647766 572.365789 79.204193 C 572.805078 79.774508 573.023846 80.303549 573.021251 80.805203 C 573.017812 81.320746 572.36404 82.674953 571.046047 84.866983 C 569.72721 87.0729 568.167606 89.570855 566.36639 92.374734 C 564.579062 95.179457 563.622675 96.696492 563.495541 96.953614 C 568.396828 96.58227 571.879399 96.389587 573.914636 96.387769 C 575.963761 96.386794 577.363072 96.527554 578.126457 96.810894 C 578.875953 97.093391 579.747846 97.885134 580.715203 99.17055 C 581.696448 100.456809 582.584305 101.444671 583.409083 102.094161 C 584.233016 102.757538 584.632264 103.757537 584.636289 105.068068 C 584.63947 106.392488 583.83254 107.514364 582.230232 108.420653 C 580.627081 109.34083 578.906984 109.891483 577.083831 110.073456 C 562.484716 111.528395 554.424046 112.279325 552.914865 112.340979 C 547.813052 120.143688 540.6897 132.312024 531.531762 148.831257 C 522.373825 165.35049 517.522907 175.6775 516.949545 179.838376 C 516.695928 181.718705 516.573664 183.27247 516.571393 184.457166 C 516.575678 186.91073 517.866677 188.14611 520.445232 188.149417 C 523.024631 188.138837 525.886137 187.155709 529.031437 185.172257 C 532.176737 183.188806 535.081334 181.0374 537.718295 178.702466 C 544.763386 172.411728 548.536759 169.267656 549.052301 169.271096 C 550.683943 169.258699 551.501259 172.096193 551.505937 177.755802 C 551.49919 180.8499 550.091055 183.607961 547.251226 186.069964 C 540.897288 191.538456 535.545165 195.659944 531.208744 198.43527 C 526.85928 201.195866 522.523053 202.591221 518.173976 202.591873 C 517.240107 202.590901 516.353808 202.495243 515.528966 202.305744 C 510.498663 201.358965 506.805109 199.517643 504.448305 196.781779 C 502.077613 194.045072 500.922053 190.350677 500.954692 185.68302 C 500.986488 181.029251 502.360939 175.383723 505.10582 168.748125 C 507.836813 162.111683 511.290889 155.045233 515.440273 147.547087 C 522.231157 135.344614 529.032037 123.895467 535.829867 113.184914 L 532.246251 113.664182 C 524.948576 114.475401 520.700024 114.886397 519.50144 114.883283 L 518.650899 114.887372 C 516.824826 114.887958 515.062351 114.529987 513.364318 113.799572 C 511.665442 113.083045 510.814186 112.181041 510.809707 111.107449 C 510.818273 110.048588 511.272097 109.002836 512.183381 107.998813 C 513.094665 106.994789 513.644408 106.20577 513.831765 105.645644 C 514.278905 104.251005 515.933909 102.706713 518.796777 101.012767 C 521.659645 99.318822 523.805271 98.417659 525.260588 98.324855 C 526.702017 98.231208 528.100938 98.148917 529.456508 98.091871 C 530.812922 98.020938 532.322103 97.959284 533.984896 97.893023 C 535.660733 97.841494 536.933819 97.765498 537.815511 97.707544 L 546.313393 97.331654 C 551.590297 89.400189 555.230954 84.310503 557.209275 82.033133 C 559.200639 79.770495 560.349317 78.529987 560.655306 78.311608 C 560.975184 78.094073 561.595535 77.978426 562.543292 77.980242 Z M 615.599414 127.258429 C 620.380706 127.256154 622.776383 128.893181 622.772556 132.168666 C 622.77736 133.9253 622.363902 135.22441 621.547757 136.039064 C 620.731612 136.853717 618.977122 139.5768 616.312906 144.196111 C 613.633958 148.828466 610.668232 154.739748 607.42877 161.944689 C 604.189309 169.149629 602.100601 175.309336 601.149604 180.409079 C 600.971916 181.039489 600.877102 181.911901 600.878206 183.041045 C 600.876457 186.511805 601.816817 188.241636 603.698443 188.244425 C 605.5948 188.23417 607.823754 187.338069 610.400037 185.543079 C 612.990207 183.748933 615.280748 181.83901 617.301122 179.787222 C 619.306764 177.748479 621.274118 175.651653 623.202338 173.510632 C 625.11667 171.368768 626.264503 170.142147 626.645838 169.830771 C 627.013285 169.518551 627.580615 169.357865 628.346985 169.362602 C 629.531681 169.364872 630.257101 170.273171 630.508514 172.100543 C 630.76077 173.914027 630.896861 175.804089 630.889854 177.755154 C 630.896734 179.707064 630.702953 181.061336 630.322397 181.818815 C 628.501712 185.402108 624.489973 189.716534 618.288024 194.748204 C 612.086074 199.779873 606.454308 202.309241 601.394413 202.308531 C 596.32063 202.306978 592.595472 200.75646 590.203363 197.68391 C 587.812098 194.597472 586.611889 191.179149 586.616624 187.429786 C 586.620515 183.69431 587.252674 180.401238 588.511416 177.578344 C 583.275915 184.369307 577.280922 190.12445 570.526439 194.84377 C 563.758067 199.562247 558.233641 201.930865 553.954847 201.921848 C 549.675209 201.926718 546.184849 200.64137 543.470722 198.05107 C 540.013457 194.844119 538.290696 190.390429 538.287706 184.703044 C 538.28556 179.001771 539.553125 173.280055 542.105977 167.510963 C 544.657985 161.755758 548.001543 156.508633 552.16527 151.757385 C 556.31511 147.005293 560.871854 142.668218 565.847704 138.774779 C 576.297749 130.586058 585.926979 126.501364 594.736237 126.506808 C 598.137558 126.504339 600.905418 127.062776 603.038976 128.196007 C 605.186421 129.330082 606.535892 130.750224 607.10212 132.443388 C 608.605718 130.178998 609.891198 128.751651 610.930784 128.159659 C 611.957326 127.552935 613.522513 127.257717 615.599414 127.258429 Z M 603.045213 137.730815 C 592.284046 137.732252 581.145376 143.718561 569.630049 155.675856 C 565.537513 159.943556 561.76849 165.081201 558.338555 171.061858 C 554.908619 177.042515 553.197287 181.120324 553.20287 183.323061 C 553.193721 185.538842 553.824002 186.63651 555.09287 186.629955 C 556.84866 186.639039 561.757537 183.159708 569.818656 176.20585 C 577.865888 169.251149 583.222358 164.140241 585.861136 160.85755 C 588.758787 157.214226 594.482184 149.505033 603.045213 137.730815 Z M 700.55722 57.300874 C 703.581878 57.303403 706.231431 58.203134 708.533657 60.001754 C 710.836725 61.786487 711.985276 64.448953 711.980152 67.975265 C 711.975028 71.501578 710.023188 77.014456 706.122945 84.541676 C 702.223545 92.055008 697.53292 99.743303 692.066646 107.579629 C 686.586484 115.415111 680.379864 123.736154 673.460675 132.543601 C 662.519948 146.515171 652.000273 159.062639 641.92858 170.201581 C 641.868291 170.964575 641.601695 172.370181 641.129636 174.40451 C 640.656732 176.452727 640.419925 178.515286 640.419212 180.592187 C 640.4185 182.669088 641.3782 184.539486 643.298311 186.203381 C 645.217578 187.881163 647.592747 188.708469 650.436017 188.713918 C 653.266244 188.704636 656.296092 187.703855 659.541139 185.684645 C 662.785342 183.679323 665.597785 181.438685 667.990668 178.991349 C 674.281201 172.501442 678.185471 169.267748 679.691278 169.261646 C 681.210129 169.270276 681.963132 171.560234 681.962486 176.160138 L 681.959697 178.041764 C 681.963982 180.495328 681.520153 182.294405 680.64294 183.425951 C 675.356559 189.907161 669.404204 194.730965 662.798917 197.912095 C 656.193631 201.093225 649.922303 202.677692 644.011867 202.681071 C 638.101431 202.684451 633.597313 200.877525 630.514245 197.24725 C 627.430333 193.630863 625.891555 188.672598 625.883178 182.3855 C 625.889528 170.119369 629.177981 155.682947 635.74685 139.104011 C 642.329606 122.525919 649.738569 108.409502 657.986783 96.769491 C 676.548753 70.464681 690.743809 57.304127 700.55722 57.300874 Z M 696.315365 72.975727 C 696.303294 72.027127 695.996979 71.562464 695.369489 71.566164 C 693.167596 71.557859 687.376641 77.855086 677.997466 90.443957 C 668.618292 103.032829 661.834025 113.061184 657.656866 120.557643 C 653.466662 128.039371 649.521966 137.445685 645.808889 148.775744 C 653.229732 139.970892 663.500851 126.23743 676.622246 107.575358 C 689.743641 88.913286 696.312643 77.380357 696.315365 72.975727 Z M 696.315365 72.975727 " stroke="#101010" stroke-width="9.66665" stroke-opacity="1" stroke-miterlimit="4"/><g fill="#f1ff50" fill-opacity="1"><g transform="translate(132.008819, 225.329153)"><g><path d="M 11.140625 -26.6875 L 10.59375 -26.734375 L 10.5 -26.734375 C 10.050781 -26.703125 9.582031 -26.847656 9.09375 -27.171875 C 8.601562 -27.503906 8.328125 -28.117188 8.265625 -29.015625 C 8.210938 -29.910156 8.640625 -30.960938 9.546875 -32.171875 C 10.453125 -33.378906 11.71875 -34.515625 13.34375 -35.578125 C 14.96875 -36.648438 17.007812 -37.566406 19.46875 -38.328125 C 21.925781 -39.097656 24.535156 -39.566406 27.296875 -39.734375 C 32.960938 -40.078125 37.453125 -39.226562 40.765625 -37.1875 C 44.085938 -35.144531 45.851562 -32.347656 46.0625 -28.796875 C 46.195312 -26.566406 45.835938 -24.3125 44.984375 -22.03125 C 44.140625 -19.75 42.941406 -17.617188 41.390625 -15.640625 C 39.847656 -13.660156 38.003906 -11.785156 35.859375 -10.015625 C 33.722656 -8.242188 31.46875 -6.71875 29.09375 -5.4375 C 23.945312 -2.675781 18.957031 -1.148438 14.125 -0.859375 C 11.75 -0.710938 10.238281 -0.8125 9.59375 -1.15625 C 9.351562 -1.269531 9.113281 -1.445312 8.875 -1.6875 C 8.644531 -1.9375 8.46875 -2.101562 8.34375 -2.1875 C 7.988281 -2.375 7.789062 -2.816406 7.75 -3.515625 C 7.707031 -4.210938 7.738281 -4.847656 7.84375 -5.421875 C 8.257812 -7.335938 10.382812 -11.578125 14.21875 -18.140625 C 18.0625 -24.703125 21.289062 -30 23.90625 -34.03125 C 24.082031 -34.3125 25.070312 -34.566406 26.875 -34.796875 C 27.601562 -34.847656 28.109375 -34.828125 28.390625 -34.734375 C 28.679688 -34.640625 28.832031 -34.457031 28.84375 -34.1875 C 28.863281 -33.914062 28.457031 -33.113281 27.625 -31.78125 C 26.789062 -30.445312 24.113281 -25.796875 19.59375 -17.828125 C 15.082031 -9.859375 12.832031 -5.765625 12.84375 -5.546875 C 12.863281 -5.335938 13.65625 -5.28125 15.21875 -5.375 C 16.78125 -5.46875 18.679688 -5.914062 20.921875 -6.71875 C 23.171875 -7.519531 25.265625 -8.519531 27.203125 -9.71875 C 29.140625 -10.914062 30.984375 -12.28125 32.734375 -13.8125 C 34.492188 -15.34375 35.976562 -16.890625 37.1875 -18.453125 C 39.851562 -21.878906 41.109375 -24.851562 40.953125 -27.375 C 40.804688 -29.894531 39.523438 -31.960938 37.109375 -33.578125 C 34.703125 -35.203125 31.5 -35.894531 27.5 -35.65625 C 24.789062 -35.488281 22.265625 -34.878906 19.921875 -33.828125 C 17.585938 -32.785156 15.988281 -31.890625 15.125 -31.140625 C 14.269531 -30.390625 13.851562 -29.890625 13.875 -29.640625 C 13.875 -29.492188 13.976562 -29.425781 14.1875 -29.4375 L 15.328125 -29.71875 C 15.484375 -29.726562 15.5625 -29.695312 15.5625 -29.625 C 15.5625 -29.550781 15.414062 -29.414062 15.125 -29.21875 C 14.84375 -29.03125 14.613281 -28.828125 14.4375 -28.609375 C 14.269531 -28.398438 13.828125 -28.046875 13.109375 -27.546875 C 12.398438 -27.054688 11.742188 -26.769531 11.140625 -26.6875 Z M 11.140625 -26.6875 "/></g></g></g><g fill="#f1ff50" fill-opacity="1"><g transform="translate(174.519928, 222.746737)"><g><path d="M 17.09375 -30.203125 C 17.15625 -29.191406 16.75 -28.148438 15.875 -27.078125 C 15.007812 -26.003906 14.066406 -25.4375 13.046875 -25.375 C 12.035156 -25.320312 11.492188 -25.820312 11.421875 -26.875 C 11.359375 -27.9375 11.742188 -28.972656 12.578125 -29.984375 C 13.410156 -30.992188 14.363281 -31.53125 15.4375 -31.59375 C 15.914062 -31.625 16.300781 -31.515625 16.59375 -31.265625 C 16.894531 -31.015625 17.0625 -30.660156 17.09375 -30.203125 Z M 14.21875 -6.84375 C 14.25 -6.3125 14.210938 -5.925781 14.109375 -5.6875 C 13.359375 -3.875 12.070312 -2.363281 10.25 -1.15625 C 8.425781 0.0390625 6.816406 0.679688 5.421875 0.765625 C 4.035156 0.847656 2.8125 0.453125 1.75 -0.421875 C 0.6875 -1.296875 0.125 -2.21875 0.0625 -3.1875 C 0.0078125 -4.15625 0.410156 -5.59375 1.265625 -7.5 C 2.128906 -9.414062 2.992188 -11.1875 3.859375 -12.8125 C 4.734375 -14.445312 5.164062 -15.328125 5.15625 -15.453125 C 5.15625 -15.585938 4.960938 -15.835938 4.578125 -16.203125 C 4.191406 -16.566406 3.992188 -16.84375 3.984375 -17.03125 C 3.972656 -17.21875 4.304688 -17.726562 4.984375 -18.5625 C 5.671875 -19.394531 6.515625 -20.222656 7.515625 -21.046875 C 8.523438 -21.867188 9.304688 -22.296875 9.859375 -22.328125 C 10.421875 -22.367188 10.9375 -22.15625 11.40625 -21.6875 C 11.875 -21.226562 12.117188 -20.796875 12.140625 -20.390625 C 12.160156 -19.984375 10.289062 -16.035156 6.53125 -8.546875 C 6.488281 -8.441406 6.359375 -8.195312 6.140625 -7.8125 C 5.921875 -7.4375 5.753906 -7.125 5.640625 -6.875 C 5.523438 -6.632812 5.390625 -6.34375 5.234375 -6 C 4.921875 -5.269531 4.78125 -4.671875 4.8125 -4.203125 C 4.84375 -3.609375 5.265625 -3.332031 6.078125 -3.375 C 6.890625 -3.425781 7.71875 -3.753906 8.5625 -4.359375 C 9.40625 -4.960938 10.125 -5.617188 10.71875 -6.328125 C 12.269531 -8.210938 13.160156 -9.160156 13.390625 -9.171875 C 13.847656 -9.203125 14.125 -8.425781 14.21875 -6.84375 Z M 14.21875 -6.84375 "/></g></g></g><g fill="#f1ff50" fill-opacity="1"><g transform="translate(185.498219, 222.07984)"><g><path d="M 8.8125 -18.171875 C 10.445312 -19.453125 12.0625 -20.457031 13.65625 -21.1875 C 15.257812 -21.914062 16.660156 -22.316406 17.859375 -22.390625 C 19.054688 -22.460938 19.84375 -22.171875 20.21875 -21.515625 C 20.863281 -22.335938 21.695312 -22.804688 22.71875 -22.921875 C 23.007812 -22.960938 23.375 -22.992188 23.8125 -23.015625 C 24.257812 -23.046875 24.539062 -23.003906 24.65625 -22.890625 C 24.769531 -22.785156 24.878906 -22.582031 24.984375 -22.28125 C 25.085938 -21.976562 25.148438 -21.804688 25.171875 -21.765625 C 25.203125 -21.734375 25.21875 -21.675781 25.21875 -21.59375 C 25.226562 -21.519531 25.191406 -21.421875 25.109375 -21.296875 C 25.023438 -21.179688 24.925781 -21.066406 24.8125 -20.953125 C 24.707031 -20.835938 24.644531 -20.769531 24.625 -20.75 C 21.070312 -14.925781 17.472656 -8.304688 13.828125 -0.890625 C 17.804688 -4.859375 21.40625 -7.757812 24.625 -9.59375 C 24.820312 -9.71875 25.019531 -9.785156 25.21875 -9.796875 C 25.5 -9.816406 25.691406 -9.644531 25.796875 -9.28125 C 25.910156 -8.925781 25.988281 -8.410156 26.03125 -7.734375 C 26.070312 -7.066406 26.054688 -6.648438 25.984375 -6.484375 C 25.921875 -6.328125 25.53125 -5.988281 24.8125 -5.46875 C 24.09375 -4.945312 23.164062 -4.269531 22.03125 -3.4375 C 20.90625 -2.601562 19.710938 -1.691406 18.453125 -0.703125 C 15.390625 1.703125 12.921875 4.179688 11.046875 6.734375 C 8.578125 10.085938 6.832031 12.78125 5.8125 14.8125 C 5.425781 15.59375 4.734375 16.015625 3.734375 16.078125 C 1.742188 16.203125 0.691406 15.316406 0.578125 13.421875 C 0.460938 11.503906 1.285156 9.484375 3.046875 7.359375 C 4.359375 5.773438 5.578125 4.46875 6.703125 3.4375 C 7.828125 2.414062 8.441406 1.835938 8.546875 1.703125 C 9.734375 -0.328125 11.332031 -3.207031 13.34375 -6.9375 C 11.570312 -4.832031 9.828125 -3.132812 8.109375 -1.84375 C 6.390625 -0.550781 5.09375 0.117188 4.21875 0.171875 C 1.507812 0.335938 0.0820312 -0.734375 -0.0625 -3.046875 C -0.164062 -4.867188 0.191406 -6.742188 1.015625 -8.671875 C 1.835938 -10.609375 2.9375 -12.351562 4.3125 -13.90625 C 5.6875 -15.46875 7.1875 -16.890625 8.8125 -18.171875 Z M 18.84375 -19.46875 C 16.820312 -18.90625 14.941406 -18.0625 13.203125 -16.9375 C 11.460938 -15.8125 10.046875 -14.632812 8.953125 -13.40625 C 7.859375 -12.1875 6.925781 -10.941406 6.15625 -9.671875 C 4.695312 -7.296875 4.007812 -5.484375 4.09375 -4.234375 C 4.101562 -3.941406 4.179688 -3.800781 4.328125 -3.8125 C 4.484375 -3.820312 4.8125 -4 5.3125 -4.34375 C 5.820312 -4.6875 6.53125 -5.269531 7.4375 -6.09375 C 8.34375 -6.914062 9.347656 -7.894531 10.453125 -9.03125 C 12.992188 -11.675781 15.789062 -15.15625 18.84375 -19.46875 Z M 18.84375 -19.46875 "/></g></g></g><g fill="#f1ff50" fill-opacity="1"><g transform="translate(208.169052, 220.702658)"><g><path d="M 17.09375 -30.203125 C 17.15625 -29.191406 16.75 -28.148438 15.875 -27.078125 C 15.007812 -26.003906 14.066406 -25.4375 13.046875 -25.375 C 12.035156 -25.320312 11.492188 -25.820312 11.421875 -26.875 C 11.359375 -27.9375 11.742188 -28.972656 12.578125 -29.984375 C 13.410156 -30.992188 14.363281 -31.53125 15.4375 -31.59375 C 15.914062 -31.625 16.300781 -31.515625 16.59375 -31.265625 C 16.894531 -31.015625 17.0625 -30.660156 17.09375 -30.203125 Z M 14.21875 -6.84375 C 14.25 -6.3125 14.210938 -5.925781 14.109375 -5.6875 C 13.359375 -3.875 12.070312 -2.363281 10.25 -1.15625 C 8.425781 0.0390625 6.816406 0.679688 5.421875 0.765625 C 4.035156 0.847656 2.8125 0.453125 1.75 -0.421875 C 0.6875 -1.296875 0.125 -2.21875 0.0625 -3.1875 C 0.0078125 -4.15625 0.410156 -5.59375 1.265625 -7.5 C 2.128906 -9.414062 2.992188 -11.1875 3.859375 -12.8125 C 4.734375 -14.445312 5.164062 -15.328125 5.15625 -15.453125 C 5.15625 -15.585938 4.960938 -15.835938 4.578125 -16.203125 C 4.191406 -16.566406 3.992188 -16.84375 3.984375 -17.03125 C 3.972656 -17.21875 4.304688 -17.726562 4.984375 -18.5625 C 5.671875 -19.394531 6.515625 -20.222656 7.515625 -21.046875 C 8.523438 -21.867188 9.304688 -22.296875 9.859375 -22.328125 C 10.421875 -22.367188 10.9375 -22.15625 11.40625 -21.6875 C 11.875 -21.226562 12.117188 -20.796875 12.140625 -20.390625 C 12.160156 -19.984375 10.289062 -16.035156 6.53125 -8.546875 C 6.488281 -8.441406 6.359375 -8.195312 6.140625 -7.8125 C 5.921875 -7.4375 5.753906 -7.125 5.640625 -6.875 C 5.523438 -6.632812 5.390625 -6.34375 5.234375 -6 C 4.921875 -5.269531 4.78125 -4.671875 4.8125 -4.203125 C 4.84375 -3.609375 5.265625 -3.332031 6.078125 -3.375 C 6.890625 -3.425781 7.71875 -3.753906 8.5625 -4.359375 C 9.40625 -4.960938 10.125 -5.617188 10.71875 -6.328125 C 12.269531 -8.210938 13.160156 -9.160156 13.390625 -9.171875 C 13.847656 -9.203125 14.125 -8.425781 14.21875 -6.84375 Z M 14.21875 -6.84375 "/></g></g></g><g fill="#f1ff50" fill-opacity="1"><g transform="translate(219.147343, 220.035761)"><g><path d="M 17.78125 -35.28125 L 18.890625 -35.078125 C 19.035156 -35.085938 19.171875 -35.015625 19.296875 -34.859375 C 19.429688 -34.710938 19.503906 -34.566406 19.515625 -34.421875 C 19.523438 -34.285156 19.363281 -33.894531 19.03125 -33.25 C 18.707031 -32.601562 18.316406 -31.875 17.859375 -31.0625 C 17.398438 -30.257812 17.15625 -29.820312 17.125 -29.75 C 18.5 -29.9375 19.46875 -30.046875 20.03125 -30.078125 C 20.601562 -30.117188 21 -30.109375 21.21875 -30.046875 C 21.4375 -29.984375 21.691406 -29.773438 21.984375 -29.421875 C 22.273438 -29.078125 22.539062 -28.816406 22.78125 -28.640625 C 23.03125 -28.460938 23.164062 -28.1875 23.1875 -27.8125 C 23.207031 -27.445312 23 -27.125 22.5625 -26.84375 C 22.132812 -26.5625 21.664062 -26.378906 21.15625 -26.296875 C 17.082031 -25.640625 14.835938 -25.289062 14.421875 -25.25 C 13.117188 -22.976562 11.320312 -19.445312 9.03125 -14.65625 C 6.75 -9.875 5.566406 -6.894531 5.484375 -5.71875 C 5.441406 -5.175781 5.429688 -4.742188 5.453125 -4.421875 C 5.492188 -3.734375 5.875 -3.410156 6.59375 -3.453125 C 7.320312 -3.503906 8.113281 -3.832031 8.96875 -4.4375 C 9.820312 -5.039062 10.597656 -5.691406 11.296875 -6.390625 C 13.160156 -8.273438 14.164062 -9.222656 14.3125 -9.234375 C 14.769531 -9.253906 15.046875 -8.472656 15.140625 -6.890625 C 15.191406 -6.023438 14.84375 -5.226562 14.09375 -4.5 C 12.40625 -2.851562 10.972656 -1.601562 9.796875 -0.75 C 8.628906 0.09375 7.4375 0.550781 6.21875 0.625 C 5.957031 0.644531 5.710938 0.632812 5.484375 0.59375 C 4.054688 0.414062 2.988281 -0.0351562 2.28125 -0.765625 C 1.570312 -1.492188 1.179688 -2.507812 1.109375 -3.8125 C 1.046875 -5.113281 1.335938 -6.71875 1.984375 -8.625 C 2.640625 -10.539062 3.484375 -12.578125 4.515625 -14.734375 C 6.210938 -18.285156 7.925781 -21.613281 9.65625 -24.71875 L 8.65625 -24.515625 C 6.613281 -24.160156 5.425781 -23.972656 5.09375 -23.953125 L 4.859375 -23.9375 C 4.347656 -23.914062 3.847656 -23.988281 3.359375 -24.15625 C 2.878906 -24.332031 2.628906 -24.570312 2.609375 -24.875 C 2.597656 -25.175781 2.707031 -25.472656 2.9375 -25.765625 C 3.164062 -26.066406 3.300781 -26.300781 3.34375 -26.46875 C 3.445312 -26.863281 3.882812 -27.320312 4.65625 -27.84375 C 5.425781 -28.375 6.015625 -28.664062 6.421875 -28.71875 C 6.828125 -28.769531 7.21875 -28.8125 7.59375 -28.84375 C 7.976562 -28.882812 8.40625 -28.925781 8.875 -28.96875 C 9.34375 -29.019531 9.703125 -29.0625 9.953125 -29.09375 L 12.3125 -29.359375 C 13.65625 -31.660156 14.585938 -33.144531 15.109375 -33.8125 C 15.628906 -34.488281 15.929688 -34.859375 16.015625 -34.921875 C 16.097656 -34.992188 16.269531 -35.035156 16.53125 -35.046875 Z M 17.78125 -35.28125 "/></g></g></g><g fill="#f1ff50" fill-opacity="1"><g transform="translate(230.786974, 219.32869)"><g><path d="M 20.59375 -21.4375 C 21.9375 -21.519531 22.632812 -21.101562 22.6875 -20.1875 C 22.71875 -19.6875 22.625 -19.3125 22.40625 -19.0625 C 22.195312 -18.820312 21.757812 -18.03125 21.09375 -16.6875 C 20.425781 -15.34375 19.695312 -13.632812 18.90625 -11.5625 C 18.113281 -9.5 17.632812 -7.738281 17.46875 -6.28125 C 17.425781 -6.101562 17.414062 -5.859375 17.4375 -5.546875 C 17.488281 -4.578125 17.78125 -4.109375 18.3125 -4.140625 C 18.84375 -4.171875 19.453125 -4.457031 20.140625 -5 C 20.828125 -5.539062 21.4375 -6.113281 21.96875 -6.71875 C 22.5 -7.332031 23.015625 -7.957031 23.515625 -8.59375 C 24.023438 -9.226562 24.328125 -9.59375 24.421875 -9.6875 C 24.523438 -9.78125 24.679688 -9.835938 24.890625 -9.859375 C 25.234375 -9.878906 25.453125 -9.628906 25.546875 -9.109375 C 25.648438 -8.597656 25.71875 -8.066406 25.75 -7.515625 C 25.78125 -6.972656 25.75 -6.597656 25.65625 -6.390625 C 25.207031 -5.359375 24.160156 -4.082031 22.515625 -2.5625 C 20.867188 -1.050781 19.332031 -0.25 17.90625 -0.15625 C 16.488281 -0.0703125 15.414062 -0.441406 14.6875 -1.265625 C 13.96875 -2.085938 13.570312 -3.019531 13.5 -4.0625 C 13.4375 -5.113281 13.5625 -6.046875 13.875 -6.859375 C 12.53125 -4.878906 10.945312 -3.164062 9.125 -1.71875 C 7.300781 -0.28125 5.789062 0.472656 4.59375 0.546875 C 3.394531 0.617188 2.394531 0.316406 1.59375 -0.359375 C 0.570312 -1.203125 0.015625 -2.421875 -0.078125 -4.015625 C -0.179688 -5.617188 0.0703125 -7.25 0.6875 -8.90625 C 1.3125 -10.5625 2.160156 -12.085938 3.234375 -13.484375 C 4.316406 -14.878906 5.519531 -16.171875 6.84375 -17.359375 C 9.644531 -19.835938 12.28125 -21.148438 14.75 -21.296875 C 15.695312 -21.359375 16.484375 -21.25 17.109375 -20.96875 C 17.734375 -20.6875 18.132812 -20.3125 18.3125 -19.84375 C 18.695312 -20.5 19.03125 -20.914062 19.3125 -21.09375 C 19.59375 -21.28125 20.019531 -21.394531 20.59375 -21.4375 Z M 17.265625 -18.28125 C 14.242188 -18.101562 11.222656 -16.242188 8.203125 -12.703125 C 7.128906 -11.421875 6.160156 -9.910156 5.296875 -8.171875 C 4.429688 -6.441406 4.019531 -5.269531 4.0625 -4.65625 C 4.101562 -4.039062 4.300781 -3.742188 4.65625 -3.765625 C 5.15625 -3.796875 6.472656 -4.851562 8.609375 -6.9375 C 10.753906 -9.019531 12.160156 -10.539062 12.828125 -11.5 C 13.578125 -12.582031 15.054688 -14.84375 17.265625 -18.28125 Z M 17.265625 -18.28125 "/></g></g></g><g fill="#f1ff50" fill-opacity="1"><g transform="translate(252.84937, 217.988469)"><g><path d="M 21.15625 -41.140625 C 22.007812 -41.191406 22.773438 -40.984375 23.453125 -40.515625 C 24.128906 -40.046875 24.492188 -39.316406 24.546875 -38.328125 C 24.609375 -37.347656 24.15625 -35.769531 23.1875 -33.59375 C 22.21875 -31.425781 21.03125 -29.195312 19.625 -26.90625 C 18.226562 -24.613281 16.640625 -22.175781 14.859375 -19.59375 C 12.015625 -15.488281 9.28125 -11.789062 6.65625 -8.5 C 6.644531 -8.289062 6.59375 -7.894531 6.5 -7.3125 C 6.40625 -6.726562 6.375 -6.144531 6.40625 -5.5625 C 6.4375 -4.976562 6.734375 -4.46875 7.296875 -4.03125 C 7.867188 -3.601562 8.550781 -3.414062 9.34375 -3.46875 C 10.144531 -3.519531 10.976562 -3.847656 11.84375 -4.453125 C 12.71875 -5.066406 13.46875 -5.742188 14.09375 -6.484375 C 15.757812 -8.398438 16.800781 -9.367188 17.21875 -9.390625 C 17.644531 -9.421875 17.894531 -8.796875 17.96875 -7.515625 L 18 -6.984375 C 18.039062 -6.285156 17.945312 -5.773438 17.71875 -5.453125 C 16.351562 -3.546875 14.769531 -2.09375 12.96875 -1.09375 C 11.175781 -0.09375 9.445312 0.457031 7.78125 0.5625 C 6.125 0.664062 4.832031 0.238281 3.90625 -0.71875 C 2.988281 -1.6875 2.476562 -3.050781 2.375 -4.8125 C 2.164062 -8.25 2.835938 -12.347656 4.390625 -17.109375 C 5.953125 -21.867188 7.789062 -25.953125 9.90625 -29.359375 C 14.664062 -37.046875 18.414062 -40.972656 21.15625 -41.140625 Z M 20.234375 -36.6875 C 20.210938 -36.945312 20.113281 -37.070312 19.9375 -37.0625 C 19.320312 -37.019531 17.804688 -35.15625 15.390625 -31.46875 C 12.972656 -27.78125 11.242188 -24.851562 10.203125 -22.6875 C 9.171875 -20.519531 8.226562 -17.8125 7.375 -14.5625 C 9.3125 -17.164062 11.957031 -21.191406 15.3125 -26.640625 C 18.664062 -32.097656 20.304688 -35.445312 20.234375 -36.6875 Z M 20.234375 -36.6875 "/></g></g></g></svg>